<svg xmlns="http://www.w3.org/2000/svg" width="461.282" height="322.12" viewBox="0 0 461.282 322.12">
  <path id="Path_3" data-name="Path 3" d="M-224.055,32.63c2.47,1.95,4.81,2.08,6.76.13,1.95-2.08,8.32-21.58,17.16-52.39,2.47-8.84,5.2-18.33,5.98-20.93.78-2.73,2.08-6.76,2.86-9.23.91-3.12,1.56-4.55,2.34-4.94,2.21-1.17,2.21-.26,2.6,19.76.13,10.4.52,21.19.78,23.92,2.47,22.36,7.41,33.41,17.16,38.22,3.12,1.56,3.64,1.69,8.97,1.69,4.68,0,5.98-.26,8.06-1.17,9.62-4.42,16.51-15.73,21.45-35.23,4.81-19.11,7.54-42.25,7.8-65.39,0-14.82-.39-21.45-1.82-22.75-1.17-1.17-4.29-1.3-5.72-.26-.91.65-.91,1.04-.26,8.32,1.82,20.8-1.43,56.03-7.15,78.13-4.03,15.6-11.31,27.82-18.98,31.72-2.34,1.17-3.38,1.04-5.46-.78-7.02-6.24-10.66-22.88-12.61-59.28-2.08-38.22-3.25-43.16-9.88-43.16-3.64,0-4.42.91-6.24,7.54-11.83,41.08-22.1,73.45-23.66,74.49a1.562,1.562,0,0,1-1.82,0c-1.3-.78-1.3-5.07-.26-37.83.91-30.94.78-52.39-.26-55.25-.78-1.95-1.82-2.6-4.42-2.6-2.73,0-3.25.52-4.03,3.9-1.3,5.59-3.64,37.44-4.68,64.09C-230.945,10.92-229.255,28.21-224.055,32.63Zm149.5-52.26c.39-13.65.39-21.71,0-27.17-1.04-16.77-2.86-21.84-7.67-22.62-6.11-1.04-9.62,2.6-15.08,15.21a235.506,235.506,0,0,0-8.06,22.88c-.65,2.47-1.82,3.25-2.86,1.82-.65-.78-.65-4.55-.26-26,.39-30.55.39-39.39-.65-40.82a2.626,2.626,0,0,0-4.16-.26c-3.38,3.25-5.46,34.06-5.98,82.94-.39,27.69-.26,30.03.52,32.11a9.741,9.741,0,0,0,5.33,5.33c2.08.78,5.33.65,6.24-.39.65-.65.65-1.3.39-2.86-.91-3.38.78-19.89,3.25-34.06a192.152,192.152,0,0,1,6.76-26.39c5.07-14.95,9.1-21.45,11.96-19.37.91.65.91,1.56.91,14.04-.13,7.28-.39,20.02-.78,28.47-.65,18.07-.52,25.22.52,26,1.3.78,6.89.52,7.8-.26C-75.465,7.93-75.205,4.68-74.555-19.63ZM-61.165.65a19.96,19.96,0,0,0,8.19,5.72c1.82.78,3.38.91,6.5.91,3.64-.13,4.29-.39,6.5-1.95A39.885,39.885,0,0,0-34.645.78c9.88-10.01,13.91-36.27,7.54-50.05-2.21-4.68-5.85-8.19-9.88-9.36a26,26,0,0,0-14.04.78c-4.16,1.69-8.06,5.46-9.1,9.23-.78,2.73-1.82,4.55-4.55,8.45-2.99,4.29-4.94,15.73-3.9,23.66C-67.535-8.97-65.585-4.16-61.165.65Zm8.45-25.61c1.3,1.04,2.47,1.3,5.59,1.43l3.9.13v-1.43c0-1.17-.52-1.82-1.82-2.99-2.6-2.08-5.07-6.24-6.11-10.4a11.579,11.579,0,0,1-.26-6.63c.52-3.77,1.95-5.85,5.07-7.93,2.73-1.69,4.81-1.95,7.67-.52,5.59,2.86,8.84,10.92,8.71,21.71a44.363,44.363,0,0,1-4.42,20.02c-1.82,3.9-5.98,8.84-8.45,10.14-3.38,1.82-7.8,0-10.27-4.16a29.232,29.232,0,0,1-4.03-13.52C-57.525-25.35-55.965-27.3-52.715-24.96Zm43.68-41.08c0-15.99-.26-29.64-.52-30.16-.52-1.3-2.21-1.95-4.03-1.43-.91.13-1.43.78-1.82,2.08-1.95,7.93-4.03,63.31-3.12,86.58.52,15.08,1.04,18.59,3.25,23.79,1.17,2.6,4.29,5.85,6.11,6.5,3.77,1.04,6.89.26,6.89-1.56a30.743,30.743,0,0,0-1.17-5.2C-7.735.52-8.905-17.03-9.035-66.04Zm28.08,6.63a10.451,10.451,0,0,0-8.97,3.12C4.485-51.22.195-36.27-.585-20.15c-.26,8.19.26,13.91,1.95,18.85C3.445,4.94,6.3,7.67,12.415,9.23c5.98,1.56,14.56.91,15.86-1.17,1.04-1.69-.13-2.47-4.94-3.51-3.64-.65-4.81-1.17-5.72-2.21-2.08-2.47-1.3-4.55,3.38-9.62a37.267,37.267,0,0,0,8.32-14.56c.52-1.69,1.3-4.03,1.69-5.2.78-2.6.91-11.7.13-16.25C29.445-53.69,25.415-58.89,19.045-59.41Zm3.9,32.76c-.65,3.64-4.03,10.79-5.72,12.09-1.82,1.3-3.51,1.3-4.42-.13-1.04-1.43-1.04-7.28-.13-17.81,1.17-11.83,2.86-19.37,5.07-21.84,1.43-1.56,2.47-1.3,4.03,1.3C23.855-49.4,24.5-34.84,22.945-26.65Zm34.32-7.54a29.913,29.913,0,0,0-1.04,5.72c0,1.43,0,1.43,2.34,1.43a8.578,8.578,0,0,0,3.12-.39c1.04-.65,3.12-8.32,3.64-13.65.65-5.33,0-12.22-1.3-14.69a7.029,7.029,0,0,0-6.37-3.77c-3.25.13-6.24,1.82-9.75,5.59-5.98,6.11-10.27,15.21-10.79,23.4-.52,8.71,1.95,14.56,9.23,22.23,4.29,4.42,6.24,7.28,6.24,8.58,0,.65-2.6,1.43-7.41,2.08-5.98.78-6.63,1.17-6.63,2.99,0,.78.26,1.56.65,1.69,1.3.52,11.31.26,15.08-.39,4.81-.91,5.85-1.43,6.76-3.64,1.43-3.25,0-7.02-5.59-15.08-1.69-2.47-3.77-5.72-4.42-7.02-3.64-7.28-3.12-15.47,1.69-25.22,2.21-4.55,3.51-5.85,5.33-5.2.78.26.78.91.52,5.72A66.283,66.283,0,0,1,57.265-34.19ZM74.945.65a19.96,19.96,0,0,0,8.19,5.72c1.82.78,3.38.91,6.5.91,3.64-.13,4.29-.39,6.5-1.95a39.884,39.884,0,0,0,5.33-4.55c9.88-10.01,13.91-36.27,7.54-50.05-2.21-4.68-5.85-8.19-9.88-9.36a26,26,0,0,0-14.04.78c-4.16,1.69-8.06,5.46-9.1,9.23-.78,2.73-1.82,4.55-4.55,8.45-2.99,4.29-4.94,15.73-3.9,23.66C68.575-8.97,70.525-4.16,74.945.65Zm8.45-25.61c1.3,1.04,2.47,1.3,5.59,1.43l3.9.13v-1.43c0-1.17-.52-1.82-1.82-2.99-2.6-2.08-5.07-6.24-6.11-10.4a11.579,11.579,0,0,1-.26-6.63c.52-3.77,1.95-5.85,5.07-7.93,2.73-1.69,4.81-1.95,7.67-.52,5.59,2.86,8.84,10.92,8.71,21.71a44.363,44.363,0,0,1-4.42,20.02c-1.82,3.9-5.98,8.84-8.45,10.14-3.38,1.82-7.8,0-10.27-4.16a29.232,29.232,0,0,1-4.03-13.52C78.585-25.35,80.145-27.3,83.395-24.96Zm60.84-13.65c.52.78.65,2.47.65,5.85,0,2.6.26,7.15.52,9.88,1.3,13,4.16,17.81,10.4,17.29l2.34-.13.91-3.25a72.878,72.878,0,0,1,3.12-8.58c1.3-2.99,4.29-10.27,6.76-16.38,5.2-13.39,9.88-23.27,11.05-23.66a2.236,2.236,0,0,1,1.82.13c.91.52,1.04,1.17,1.04,9.23,0,4.81-.26,14.95-.52,22.62-.78,19.63,0,30.68,2.73,37.05l.65,1.82h3.9c4.55,0,4.55.13,3.77-8.06-.26-3.25-.52-17.42-.52-31.59,0-35.1-.65-43.42-4.03-45.11a15.1,15.1,0,0,0-4.42-.65c-2.6,0-3.38.26-4.68,1.3-3.51,3.12-10.27,15.21-14.69,26.78-1.04,2.47-2.86,7.28-4.16,10.79-2.08,5.33-2.6,6.11-3.64,6.11a2.153,2.153,0,0,1-1.56-.65c-.26-.26-.78-4.68-1.04-9.62-.78-10.4-1.69-15.34-3.38-17.16-1.04-1.17-1.69-1.3-4.16-1.3-2.6,0-2.99.13-4.55,1.82-2.08,2.21-7.41,12.87-9.88,19.76-1.3,3.77-1.82,4.68-2.86,4.94-.65.13-1.43.13-1.69-.26-.26-.26-.65-5.07-.91-11.18-.52-11.96-1.17-17.29-2.08-18.46-.91-1.04-3.77-.91-4.42.26-.78,1.56-1.43,5.2-2.47,14.17-.91,9.88-1.17,36.27-.13,41.86.65,3.9,2.21,8.06,3.25,8.71s7.67.52,8.32-.13a26.8,26.8,0,0,0,1.3-5.72c2.08-12.09,9.23-36.14,11.44-38.35C143.455-39.52,143.455-39.52,144.235-38.61Zm74.49-20.8a10.451,10.451,0,0,0-8.97,3.12c-5.59,5.07-9.88,20.02-10.66,36.14-.26,8.19.26,13.91,1.95,18.85,2.08,6.24,4.94,8.97,11.05,10.53,5.98,1.56,14.56.91,15.86-1.17,1.04-1.69-.13-2.47-4.94-3.51-3.64-.65-4.81-1.17-5.72-2.21-2.08-2.47-1.3-4.55,3.38-9.62a37.267,37.267,0,0,0,8.32-14.56c.52-1.69,1.3-4.03,1.69-5.2.78-2.6.91-11.7.13-16.25C229.125-53.69,225.095-58.89,218.725-59.41Zm3.9,32.76c-.65,3.64-4.03,10.79-5.72,12.09-1.82,1.3-3.51,1.3-4.42-.13-1.04-1.43-1.04-7.28-.13-17.81,1.17-11.83,2.86-19.37,5.07-21.84,1.43-1.56,2.47-1.3,4.03,1.3C223.535-49.4,224.185-34.84,222.625-26.65ZM-180.44,189.21l-1.43-2.34.13-45.76c.13-38.74.26-46.15.91-48.75,1.43-5.72,2.86-6.63,11.44-7.54a53.473,53.473,0,0,0,6.5-1.04,5.054,5.054,0,0,0,.52-2.73c0-2.34-.13-2.47-1.82-3.12-3.38-1.04-17.16.13-32.5,2.86-8.97,1.69-10.92,2.47-10.92,4.55V86.9l6.63.13c10.27.52,10.27.52,9.1,18.33-1.56,23.01-1.82,30.94-1.82,56.81,0,22.49-.13,26.13-.78,28.21-1.04,2.99-4.16,6.37-5.85,6.37-2.08,0-10.92,2.34-13.91,3.64-1.95.91-2.73,1.69-2.99,2.6-.52,1.82-.13,2.99,1.3,3.64,1.56.91,6.37.65,15.6-.78,8.97-1.3,27.95-3.12,38.48-3.51,9.62-.39,10.01-.52,10.01-3.9s-.91-3.77-13-4.29C-176.54,193.5-178.23,192.98-180.44,189.21Zm61.75,2.08c3.12,0,3.25-.13,3.51-1.56a8.976,8.976,0,0,0-.78-3.38c-1.04-2.99-2.08-14.82-2.73-33.41-1.43-41.21-1.69-43.94-5.33-47.19-1.56-1.56-1.95-1.69-4.94-1.69a7.589,7.589,0,0,0-5.59,1.69,17.146,17.146,0,0,0-4.68,4.55c-4.29,5.85-10.79,20.15-16.64,36.92-1.82,5.46-2.6,6.5-3.9,5.33-.65-.39-.78-3.64-.91-16.51-.26-13-.39-16.51-1.04-18.46-.91-2.86-1.56-3.38-3.51-3.38-1.69,0-2.6,1.17-3.64,5.07-2.34,8.06-4.03,46.93-2.47,54.08a9.369,9.369,0,0,0,2.34,4.68c1.56,1.69,1.95,1.82,4.68,1.82a14.179,14.179,0,0,0,3.51-.39c.39-.26,1.17-2.47,1.82-4.94,3.51-12.74,16.25-45.89,22.23-57.46,2.73-5.07,5.72-6.89,6.63-3.77.26.65.52,14.17.78,30.16.52,29.12.78,34.58,2.34,39.91,1.04,3.51,1.82,4.94,3.51,6.76C-122.2,191.42-121.81,191.55-118.69,191.29Zm39.39,3.9c.26.39,1.69.65,3.38.65s3.12-.26,3.38-.65c.39-.39.78-11.31,1.17-27.43.26-14.69.91-36.79,1.17-49.01.65-25.48.26-33.54-.26-35.49-.39-1.17-.65-1.43-2.21-1.43-2.47,0-2.99,1.3-4.03,8.84-.65,5.72-2.47,13.65-4.42,23.79l-.52,3.38-2.6-.26c-8.06-.39-10.01-.26-12.09.78-8.71,4.68-14.95,22.62-15.08,43.81-.13,10.92,1.04,14.82,5.59,19.11,2.21,2.08,2.86,2.47,4.81,2.47a11.721,11.721,0,0,0,7.8-3.77c1.82-2.21,3.25-5.59,6.89-16.64,1.82-5.2,3.51-9.75,3.77-10.14,1.56-1.43,1.69.52,1.69,16.12C-80.99,184.66-80.47,193.89-79.3,195.19Zm-5.85-55.12c-2.34,11.44-6.11,23.66-9.88,30.94-2.08,4.16-3.51,5.07-4.68,2.99-1.04-1.82-.78-19.24.26-26.91,1.04-7.41,3.12-15.73,4.68-19.37,1.43-3.38,3.51-6.11,4.42-6.11,1.3,0,4.03,2.73,5.2,5.2C-83.72,130.06-83.72,132.14-85.15,140.07Zm52.91,14.04c.52-2.73,1.56-4.16,2.21-3.51a95.565,95.565,0,0,1,.52,9.62c.26,11.96.91,15.08,3.77,17.68,1.95,1.95,2.21,1.95,5.46,1.82l3.38-.13v-2.08a31.339,31.339,0,0,0-.91-4.94c-1.3-4.29-1.56-19.63-.91-36.92.78-18.72.26-21.45-4.16-21.45a6.435,6.435,0,0,0-3.12.78c-2.21,1.43-5.59,11.57-9.62,28.34-3.51,14.56-7.54,26.26-9.49,27.56a3.443,3.443,0,0,1-1.82.39c-1.04,0-1.56-.39-2.21-1.95-2.34-5.46-3.38-13.78-3.77-33.41-.39-17.03-.78-19.24-2.73-20.28a3.846,3.846,0,0,0-4.68,1.56c-2.86,5.85-5.33,32.37-3.77,42.64,1.69,11.31,5.72,17.81,12.35,20.15a11.43,11.43,0,0,0,9.75-.78C-38.35,176.86-34.84,167.76-32.24,154.11Zm30.29-46.15c0-15.99-.26-29.64-.52-30.16-.52-1.3-2.21-1.95-4.03-1.43-.91.13-1.43.78-1.82,2.08-1.95,7.93-4.03,63.31-3.12,86.58.52,15.08,1.04,18.59,3.25,23.79,1.17,2.6,4.29,5.85,6.11,6.5,3.77,1.04,6.89.26,6.89-1.56a30.743,30.743,0,0,0-1.17-5.2C-.65,174.52-1.82,156.97-1.95,107.96ZM13.78,218.98c-2.08,1.95-2.73,2.73-2.73,3.9,0,1.43,0,1.43,3.12,1.43,2.73,0,3.9-.39,6.89-1.82,4.03-2.08,6.11-4.29,9.36-9.88,7.02-11.7,12.22-34.32,13.91-59.93.65-9.1-.26-18.72-1.82-22.1-1.04-2.08-2.73-3.12-4.29-2.47-.91.39-9.88,18.2-13.65,27.17-2.08,4.94-4.03,7.41-5.33,6.63-1.3-.91-1.3-2.34-.26-9.1,2.47-14.3,7.8-27.17,13.26-31.85,1.95-1.56,2.47-1.56,4.81.26,2.6,2.21,4.94,1.95,5.2-.39.65-7.15-11.83-9.23-18.85-3.12-5.85,5.2-10.79,15.6-14.43,29.77-2.47,10.01-3.25,18.98-1.95,24.83.39,2.21,1.04,3.12,3.38,5.59,2.6,2.73,3.12,2.99,5.07,2.99s2.47-.39,3.9-1.82c2.21-2.34,2.99-3.77,6.76-13.39,1.69-4.29,3.9-9.49,4.94-11.57,1.56-3.25,2.08-3.77,3.12-3.77,1.17,0,1.3.13,1.43,2.21.39,4.81-2.47,23.01-5.59,34.97C26.52,201.95,20.67,213,13.78,218.98ZM69.55,114.59a10.451,10.451,0,0,0-8.97,3.12c-5.59,5.07-9.88,20.02-10.66,36.14-.26,8.19.26,13.91,1.95,18.85,2.08,6.24,4.94,8.97,11.05,10.53,5.98,1.56,14.56.91,15.86-1.17,1.04-1.69-.13-2.47-4.94-3.51-3.64-.65-4.81-1.17-5.72-2.21-2.08-2.47-1.3-4.55,3.38-9.62a37.267,37.267,0,0,0,8.32-14.56c.52-1.69,1.3-4.03,1.69-5.2.78-2.6.91-11.7.13-16.25C79.95,120.31,75.92,115.11,69.55,114.59Zm3.9,32.76c-.65,3.64-4.03,10.79-5.72,12.09-1.82,1.3-3.51,1.3-4.42-.13-1.04-1.43-1.04-7.28-.13-17.81,1.17-11.83,2.86-19.37,5.07-21.84,1.43-1.56,2.47-1.3,4.03,1.3C74.36,124.6,75.01,139.16,73.45,147.35Zm67.34,43.94c3.12,0,3.25-.13,3.51-1.56a8.976,8.976,0,0,0-.78-3.38c-1.04-2.99-2.08-14.82-2.73-33.41-1.43-41.21-1.69-43.94-5.33-47.19-1.56-1.56-1.95-1.69-4.94-1.69a7.589,7.589,0,0,0-5.59,1.69,17.146,17.146,0,0,0-4.68,4.55c-4.29,5.85-10.79,20.15-16.64,36.92-1.82,5.46-2.6,6.5-3.9,5.33-.65-.39-.78-3.64-.91-16.51-.26-13-.39-16.51-1.04-18.46-.91-2.86-1.56-3.38-3.51-3.38-1.69,0-2.6,1.17-3.64,5.07-2.34,8.06-4.03,46.93-2.47,54.08a9.369,9.369,0,0,0,2.34,4.68c1.56,1.69,1.95,1.82,4.68,1.82a14.179,14.179,0,0,0,3.51-.39c.39-.26,1.17-2.47,1.82-4.94,3.51-12.74,16.25-45.89,22.23-57.46,2.73-5.07,5.72-6.89,6.63-3.77.26.65.52,14.17.78,30.16.52,29.12.78,34.58,2.34,39.91,1.04,3.51,1.82,4.94,3.51,6.76C137.28,191.42,137.67,191.55,140.79,191.29Zm25.61-71.63c.91-1.17,1.3-1.3,2.08-.78,2.73,1.56,4.16,8.97,4.16,21.45,0,7.8.13,7.93,3.64,7.93,3.38,0,3.77-.65,3.9-7.67.39-12.09-2.47-21.06-7.54-24.44a13.592,13.592,0,0,0-9.88-1.17c-4.55,1.56-8.58,7.28-11.05,15.99-4.16,14.56-4.94,32.11-1.69,41.73,2.08,6.24,4.94,8.97,10.92,10.53,6.11,1.56,14.69.91,15.99-1.17,1.04-1.69-.26-2.47-4.81-3.38-5.46-1.17-7.02-2.34-8.71-6.11-2.86-6.37-3.51-15.86-2.08-31.07C162.5,129.67,164.19,122.13,166.4,119.66Zm38.87-5.07a10.451,10.451,0,0,0-8.97,3.12c-5.59,5.07-9.88,20.02-10.66,36.14-.26,8.19.26,13.91,1.95,18.85,2.08,6.24,4.94,8.97,11.05,10.53,5.98,1.56,14.56.91,15.86-1.17,1.04-1.69-.13-2.47-4.94-3.51-3.64-.65-4.81-1.17-5.72-2.21-2.08-2.47-1.3-4.55,3.38-9.62a37.267,37.267,0,0,0,8.32-14.56c.52-1.69,1.3-4.03,1.69-5.2.78-2.6.91-11.7.13-16.25C215.67,120.31,211.64,115.11,205.27,114.59Zm3.9,32.76c-.65,3.64-4.03,10.79-5.72,12.09-1.82,1.3-3.51,1.3-4.42-.13-1.04-1.43-1.04-7.28-.13-17.81,1.17-11.83,2.86-19.37,5.07-21.84,1.43-1.56,2.47-1.3,4.03,1.3C210.08,124.6,210.73,139.16,209.17,147.35Z" transform="translate(229.943 97.81)" fill="#fff8ba"/>
</svg>
